# xmcd CD database file
#
# Track frame offsets:
#	150
#	11980
#	28653
#	44104
#	61831
#	76069
#	89865
#	100782
#	118840
#	139229
#	159173
#	175454
#
# Disc length: 2566 seconds
#
# Revision: 0
# Processed by: cddbd v1.5.2PL0 Copyright (c) Steve Scherf et al.
# Submitted via: CDex 1.51
#
DISCID=a30a040c
DTITLE=Those Gals - So far So good
DYEAR=1900
DGENRE=Country
TTITLE0=Teardrops and Heartaches
TTITLE1=Consider Me
TTITLE2=Are You Happy Now?
TTITLE3=My Heart's Still Holding On
TTITLE4=Then You Can Tell Me Goodbye
TTITLE5=Oh Boy
TTITLE6=Introduce Yourself
TTITLE7=Gettin' Down and Playin' The Blues
TTITLE8=Mississippi
TTITLE9=If You Ever Have Forever In Mind
TTITLE10=Cowboy Cuddle
TTITLE11=A Bell Is Ringing Out In Beaconsfield
EXTD=
EXTT0=
EXTT1=
EXTT2=
EXTT3=
EXTT4=
EXTT5=
EXTT6=
EXTT7=
EXTT8=
EXTT9=
EXTT10=
EXTT11=
PLAYORDER=
